# xmcd
#
# Track frame offsets:
#	150
#	21075
#	40138
#	59989
#	69207
#	93039
#	116928
#	144484
#	163947
#	178561
#	199245
#	220505
#	240832
#	260146
#	279327
#
# Disc length: 4068 seconds
#
# Revision: 1
# Processed by: cddbd v1.5.2PL0 Copyright (c) Steve Scherf et al.
# Submitted via: audiograbber 1.83.01
#
DISCID=d80fe20f
DTITLE=Divine Comedy - Live-Live at Somerset House [CD2)
DYEAR=2010
DGENRE=Pop
TTITLE0=Snowball in Negative
TTITLE1=At the inside Disco
TTITLE2=Time to pretend
TTITLE3=Geronimo
TTITLE4=Don't look down
TTITLE5=Already of a Certain Age
TTITLE6=Songs of Love
TTITLE7=When a Man cries
TTITLE8=Have you ever been in Love
TTITLE9=Our Mutual Friend
TTITLE10=Tonight we fly
TTITLE11=Can you stand upon one Leg
TTITLE12=I like
TTITLE13=Jiggery Pokery
TTITLE14=Down in the Street below
EXTD=
EXTT0=
EXTT1=
EXTT2=
EXTT3=
EXTT4=
EXTT5=
EXTT6=
EXTT7=
EXTT8=
EXTT9=
EXTT10=
EXTT11=
EXTT12=
EXTT13=
EXTT14=
PLAYORDER=
